<mxfile host="app.diagrams.net" modified="2024-07-22T10:41:46.191Z" agent="Mozilla/5.0 (Windows NT 10.0; Win64; x64) AppleWebKit/537.36 (KHTML, like Gecko) Chrome/126.0.0.0 Safari/537.36" etag="umOZcVTrG89fcUZq84Wq" version="24.7.1" type="github">
  <diagram name="Page-1" id="NaoQy-yO6cqsfGPHl9Kc">
    <mxGraphModel dx="712" dy="819" grid="0" gridSize="10" guides="1" tooltips="1" connect="1" arrows="1" fold="1" page="1" pageScale="1" pageWidth="827" pageHeight="1169" math="0" shadow="0">
      <root>
        <mxCell id="0" />
        <mxCell id="1" parent="0" />
        <mxCell id="xaX1Ac1D6U7UOUDM21Ee-2" value="process" style="rounded=0;whiteSpace=wrap;html=1;" vertex="1" parent="1">
          <mxGeometry x="46" y="156" width="76" height="37" as="geometry" />
        </mxCell>
        <mxCell id="xaX1Ac1D6U7UOUDM21Ee-3" value="memory" style="rounded=0;whiteSpace=wrap;html=1;" vertex="1" parent="1">
          <mxGeometry x="148" y="156" width="76" height="37" as="geometry" />
        </mxCell>
        <mxCell id="xaX1Ac1D6U7UOUDM21Ee-4" value="storage" style="rounded=0;whiteSpace=wrap;html=1;" vertex="1" parent="1">
          <mxGeometry x="255" y="156" width="76" height="37" as="geometry" />
        </mxCell>
        <mxCell id="xaX1Ac1D6U7UOUDM21Ee-5" value="network" style="rounded=0;whiteSpace=wrap;html=1;" vertex="1" parent="1">
          <mxGeometry x="362" y="156" width="76" height="37" as="geometry" />
        </mxCell>
        <mxCell id="xaX1Ac1D6U7UOUDM21Ee-6" value="system" style="rounded=0;whiteSpace=wrap;html=1;" vertex="1" parent="1">
          <mxGeometry x="473" y="156" width="76" height="37" as="geometry" />
        </mxCell>
        <mxCell id="xaX1Ac1D6U7UOUDM21Ee-7" value="human interface" style="rounded=0;whiteSpace=wrap;html=1;" vertex="1" parent="1">
          <mxGeometry x="584" y="156" width="76" height="37" as="geometry" />
        </mxCell>
        <mxCell id="xaX1Ac1D6U7UOUDM21Ee-11" value="processes" style="rounded=0;whiteSpace=wrap;html=1;" vertex="1" parent="1">
          <mxGeometry x="46" y="214" width="76" height="37" as="geometry" />
        </mxCell>
        <mxCell id="xaX1Ac1D6U7UOUDM21Ee-12" value="task" style="rounded=0;whiteSpace=wrap;html=1;" vertex="1" parent="1">
          <mxGeometry x="46" y="272" width="76" height="37" as="geometry" />
        </mxCell>
        <mxCell id="xaX1Ac1D6U7UOUDM21Ee-13" value="synchronization" style="rounded=0;whiteSpace=wrap;html=1;" vertex="1" parent="1">
          <mxGeometry x="46" y="330" width="76" height="37" as="geometry" />
        </mxCell>
        <mxCell id="xaX1Ac1D6U7UOUDM21Ee-14" value="scheduler" style="rounded=0;whiteSpace=wrap;html=1;" vertex="1" parent="1">
          <mxGeometry x="46" y="388" width="76" height="37" as="geometry" />
        </mxCell>
        <mxCell id="xaX1Ac1D6U7UOUDM21Ee-15" value="interrupts,Arch" style="rounded=0;whiteSpace=wrap;html=1;" vertex="1" parent="1">
          <mxGeometry x="46" y="446" width="76" height="37" as="geometry" />
        </mxCell>
        <mxCell id="xaX1Ac1D6U7UOUDM21Ee-16" value="CPU" style="rounded=0;whiteSpace=wrap;html=1;" vertex="1" parent="1">
          <mxGeometry x="46" y="504" width="76" height="37" as="geometry" />
        </mxCell>
      </root>
    </mxGraphModel>
  </diagram>
</mxfile>
